<?xml version="1.0" standalone="no"?>
<!DOCTYPE svg PUBLIC "-//W3C//DTD SVG 20010904//EN"
 "http://www.w3.org/TR/2001/REC-SVG-20010904/DTD/svg10.dtd">
<svg version="1.0" xmlns="http://www.w3.org/2000/svg"
 width="900.000000pt" height="1100.000000pt" viewBox="0 0 900.000000 1100.000000"
 preserveAspectRatio="xMidYMid meet">

<g transform="translate(0.000000,1100.000000) scale(0.100000,-0.100000)"
fill="#000000" stroke="none">
<path d="M4115 10530 c-148 -33 -355 -78 -460 -100 -697 -152 -1183 -456
-1501 -940 -57 -88 -138 -239 -179 -335 -61 -143 -129 -383 -160 -565 -9 -52
-17 -96 -19 -97 -1 -1 -31 39 -66 90 -130 184 -321 358 -485 441 -89 45 -718
316 -723 312 -2 -2 111 -134 251 -293 139 -159 272 -316 294 -348 176 -261
342 -721 432 -1200 56 -297 66 -420 66 -790 l0 -350 -116 -115 c-64 -63 -141
-147 -172 -186 -240 -306 -385 -668 -438 -1099 -19 -147 -16 -506 5 -635 77
-484 277 -872 617 -1194 321 -306 782 -536 1554 -777 l199 -62 116 -116 c429
-431 1013 -731 1848 -951 67 -18 125 -31 127 -28 3 2 9 101 15 219 33 684 117
1280 243 1733 l33 119 160 33 c495 101 683 214 1175 704 470 468 868 1012
1188 1622 78 148 377 818 366 818 -2 0 -132 -102 -287 -226 -402 -322 -694
-512 -1098 -715 -286 -143 -506 -237 -765 -326 -148 -51 -357 -115 -360 -111
-1 2 -10 26 -19 53 -9 28 -30 67 -46 87 -30 36 -119 88 -151 88 -24 0 -24 0
-54 133 -65 291 -199 603 -369 862 -104 158 -178 247 -301 360 -178 165 -204
193 -361 380 -207 248 -198 234 -190 291 14 107 136 291 270 409 l68 60 52
-29 c361 -201 725 -587 939 -996 30 -58 97 -201 148 -319 70 -160 95 -209 101
-195 4 11 33 132 64 269 49 219 57 267 62 387 6 173 -10 268 -82 478 -29 85
-56 164 -60 175 -17 43 34 -31 77 -115 42 -80 84 -197 296 -820 l86 -255 3
530 c2 338 -1 566 -8 630 -22 202 -77 385 -175 583 -120 243 -263 431 -504
665 -78 75 -138 137 -132 137 5 0 56 -17 112 -37 101 -36 327 -145 587 -282
72 -38 132 -67 132 -65 0 6 -109 258 -180 416 -217 484 -623 861 -1105 1028
-530 182 -1229 132 -1782 -130 -57 -27 -103 -47 -103 -45 0 6 197 174 270 231
36 28 216 158 400 289 296 210 386 277 370 274 -3 0 -126 -27 -275 -59z m561
-3831 c113 -43 272 -174 397 -329 213 -264 406 -671 477 -1005 13 -62 24 -156
27 -246 5 -138 4 -147 -13 -153 -26 -8 -216 -38 -218 -34 -1 2 -8 46 -14 99
-27 225 -140 459 -290 601 -92 86 -170 121 -236 104 -41 -10 -83 -54 -102
-104 -9 -26 -20 -51 -24 -55 -4 -4 -24 21 -45 55 -64 103 -152 224 -241 328
-78 92 -84 103 -94 162 -15 94 -12 289 5 366 29 125 97 210 187 233 45 11 119
2 184 -22z m-1172 -294 c644 -187 1329 -1148 1329 -1865 0 -139 -17 -228 -59
-313 -56 -112 -136 -180 -248 -212 -73 -21 -220 -16 -309 11 l-59 17 32 25
c190 148 -36 645 -404 889 -107 72 -177 97 -268 98 -83 0 -110 -12 -152 -69
-27 -36 -34 -149 -13 -229 8 -31 11 -55 6 -51 -5 3 -47 62 -93 132 -337 508
-462 1054 -312 1367 49 104 122 169 235 210 63 24 217 18 315 -10z m4508 -629
c-241 -475 -588 -985 -949 -1396 -212 -240 -590 -594 -757 -709 -67 -47 -198
-106 -322 -147 -106 -34 -344 -86 -456 -99 l-58 -6 -31 -102 c-142 -457 -242
-1093 -278 -1755 -4 -84 -10 -155 -13 -157 -3 -3 -52 9 -109 25 -594 174
-1026 384 -1384 671 -127 102 -293 268 -385 384 -31 39 -91 114 -134 168 -81
103 -123 137 -168 137 -70 0 -73 -65 -9 -187 21 -40 36 -73 34 -73 -16 0 -333
112 -470 166 -386 152 -673 308 -711 387 -51 105 -54 383 -8 562 56 213 195
437 356 572 238 199 527 293 905 293 239 0 229 3 326 -106 189 -212 441 -402
653 -491 359 -152 676 -85 846 178 80 124 115 281 108 495 l-4 144 33 0 c68 0
331 32 498 60 727 122 1511 433 2205 873 75 47 178 117 230 155 52 38 97 68
99 65 3 -2 -19 -50 -47 -107z m-3033 -269 c37 -35 61 -95 61 -160 0 -69 -19
-111 -57 -125 -99 -34 -205 138 -157 257 29 73 91 84 153 28z m852 -387 c10
-14 22 -39 25 -56 6 -30 4 -32 -39 -43 -25 -6 -51 -11 -56 -11 -7 0 -11 32
-11 86 l0 86 31 -19 c18 -10 40 -29 50 -43z m-2182 -399 c86 -44 163 -170 165
-267 2 -184 -217 -146 -316 54 -33 68 -33 170 1 206 30 32 94 35 150 7z"/>
<path d="M2964 3815 c-367 -54 -504 -183 -538 -507 -3 -32 -3 -58 2 -58 4 0
30 23 57 51 157 161 339 229 455 170 90 -46 244 -220 510 -576 286 -383 374
-491 474 -589 151 -146 424 -329 691 -463 110 -56 299 -143 309 -143 2 0 6 93
9 208 15 463 100 967 234 1376 l39 116 -146 -7 c-275 -15 -809 -9 -990 11
-315 34 -606 89 -800 152 -117 37 -150 56 -150 84 0 11 10 29 23 40 29 28 142
81 245 114 45 15 82 30 82 32 0 10 -424 1 -506 -11z"/>
</g>
</svg>
